<svg width="35" height="35" viewBox="0 0 35 35" fill="none" xmlns="http://www.w3.org/2000/svg">
<g id="ant-design:cloud-upload-outlined">
<path id="Vector" d="M17.7092 15.7406C17.6844 15.7088 17.6526 15.6832 17.6164 15.6655C17.5801 15.6478 17.5403 15.6387 17.5 15.6387C17.4597 15.6387 17.4199 15.6478 17.3837 15.6655C17.3474 15.6832 17.3157 15.7088 17.2908 15.7406L13.5721 20.4455C13.5414 20.4846 13.5224 20.5316 13.5172 20.5811C13.512 20.6305 13.5208 20.6804 13.5426 20.7251C13.5644 20.7698 13.5984 20.8074 13.6406 20.8337C13.6828 20.86 13.7316 20.8739 13.7813 20.8738H16.235V28.9222C16.235 29.0683 16.3545 29.1879 16.5006 29.1879H18.4928C18.6389 29.1879 18.7584 29.0683 18.7584 28.9222V20.8771H21.2188C21.4412 20.8771 21.5641 20.6214 21.428 20.4488L17.7092 15.7406Z" fill="black"/>
<path id="Vector_2" d="M27.441 12.6756C25.9203 8.66465 22.0455 5.8125 17.5066 5.8125C12.9678 5.8125 9.09297 8.66133 7.57227 12.6723C4.72676 13.4193 2.625 16.0125 2.625 19.0938C2.625 22.7627 5.59668 25.7344 9.2623 25.7344H10.5938C10.7398 25.7344 10.8594 25.6148 10.8594 25.4688V23.4766C10.8594 23.3305 10.7398 23.2109 10.5938 23.2109H9.2623C8.14336 23.2109 7.09082 22.766 6.30723 21.9592C5.52695 21.1557 5.11191 20.0732 5.14844 18.951C5.17832 18.0744 5.47715 17.251 6.01836 16.557C6.57285 15.8498 7.3498 15.3352 8.21309 15.1061L9.47148 14.7773L9.93301 13.5621C10.2186 12.8051 10.617 12.0979 11.1184 11.457C11.6133 10.8219 12.1996 10.2635 12.8582 9.8002C14.2229 8.84063 15.8299 8.33262 17.5066 8.33262C19.1834 8.33262 20.7904 8.84063 22.1551 9.8002C22.8158 10.265 23.4002 10.8229 23.8949 11.457C24.3963 12.0979 24.7947 12.8084 25.0803 13.5621L25.5385 14.774L26.7936 15.1061C28.5932 15.5908 29.8516 17.2277 29.8516 19.0938C29.8516 20.1928 29.4232 21.2287 28.6463 22.0057C28.2653 22.3889 27.812 22.6928 27.3127 22.8997C26.8135 23.1066 26.2781 23.2124 25.7377 23.2109H24.4062C24.2602 23.2109 24.1406 23.3305 24.1406 23.4766V25.4688C24.1406 25.6148 24.2602 25.7344 24.4062 25.7344H25.7377C29.4033 25.7344 32.375 22.7627 32.375 19.0938C32.375 16.0158 30.2799 13.426 27.441 12.6756Z" fill="black"/>
</g>
</svg>
