<svg xmlns="http://www.w3.org/2000/svg" width="241.461" height="47.196" viewBox="0 0 241.461 47.196">
  <path id="Path_657" data-name="Path 657" d="M23.855,1.12a21.555,21.555,0,0,0,9.37-1.945,17.043,17.043,0,0,0,6.6-5.4,16.325,16.325,0,0,0,3-8.03l.015-.348h-8.9l-.061.257a9.512,9.512,0,0,1-1.839,4.072,9.189,9.189,0,0,1-3.451,2.694,11.2,11.2,0,0,1-4.715.954,9.761,9.761,0,0,1-5.956-1.847,11.687,11.687,0,0,1-3.86-5.26A21.889,21.889,0,0,1,12.7-21.827v-.061a21.815,21.815,0,0,1,1.355-8.091,11.644,11.644,0,0,1,3.86-5.237,9.74,9.74,0,0,1,5.926-1.839,10.492,10.492,0,0,1,4.715,1.037,9.654,9.654,0,0,1,3.489,2.891,10.138,10.138,0,0,1,1.847,4.322l.03.2h8.885v-.378a16.385,16.385,0,0,0-2.974-8.174,17.633,17.633,0,0,0-6.675-5.608A20.77,20.77,0,0,0,23.84-44.8a20.7,20.7,0,0,0-10.929,2.778,18.312,18.312,0,0,0-7.069,7.917A27.887,27.887,0,0,0,3.36-21.873v.061A27.849,27.849,0,0,0,5.843-9.589a18.329,18.329,0,0,0,7.084,7.924A20.7,20.7,0,0,0,23.855,1.12ZM57.747.53a13.234,13.234,0,0,0,4.034-.59,10.283,10.283,0,0,0,3.27-1.7A8.517,8.517,0,0,0,67.3-4.4h.545V0h8.719V-22.75a11.08,11.08,0,0,0-1.612-6.085,10.207,10.207,0,0,0-4.7-3.867,18.875,18.875,0,0,0-7.523-1.34,20.405,20.405,0,0,0-7.334,1.211,12.272,12.272,0,0,0-5.025,3.383A9.335,9.335,0,0,0,48.15-24.34l-.03.288h8.174l.045-.121a4.144,4.144,0,0,1,2.028-2.293,8.158,8.158,0,0,1,3.89-.81A6.412,6.412,0,0,1,66.412-26.1a4.089,4.089,0,0,1,1.43,3.353v10.626a5.572,5.572,0,0,1-.931,3.156,6.527,6.527,0,0,1-2.543,2.218,7.97,7.97,0,0,1-3.656.817,6.125,6.125,0,0,1-3.761-1.09,3.519,3.519,0,0,1-1.461-2.982v-.061a3.41,3.41,0,0,1,1.4-2.884,7.806,7.806,0,0,1,4.231-1.219l11.08-.711v-5.389l-12.4.742a21.238,21.238,0,0,0-7.039,1.468,9.874,9.874,0,0,0-4.39,3.375,8.771,8.771,0,0,0-1.5,5.146v.061a9.85,9.85,0,0,0,1.393,5.283A9.349,9.349,0,0,0,52.123-.7,12.376,12.376,0,0,0,57.747.53ZM82.828,0h8.84V-18.648a7.851,7.851,0,0,1,1-4.057,6.651,6.651,0,0,1,2.838-2.611,9.659,9.659,0,0,1,4.352-.916,16.341,16.341,0,0,1,2.059.129,17.641,17.641,0,0,1,2,.371v-7.7a9.585,9.585,0,0,0-1.521-.31,13.739,13.739,0,0,0-1.779-.114,9.342,9.342,0,0,0-5.419,1.5,7.519,7.519,0,0,0-2.982,4.223h-.545v-5.192h-8.84ZM120.67.121q1.287,0,2.445-.114t1.975-.265V-6.827q-.636.061-1.2.1t-1.408.038a4.4,4.4,0,0,1-3.262-1.044A4.551,4.551,0,0,1,118.2-11.02V-26.671h6.887v-6.66H118.2v-7.962h-8.931v7.962h-5.131v6.66h5.131V-8.976q0,4.844,2.664,6.97T120.67.121ZM129.4,0h8.84V-46.076H129.4Zm24.037.53a13.234,13.234,0,0,0,4.034-.59,10.283,10.283,0,0,0,3.27-1.7A8.517,8.517,0,0,0,162.992-4.4h.545V0h8.719V-22.75a11.08,11.08,0,0,0-1.612-6.085,10.207,10.207,0,0,0-4.7-3.867,18.875,18.875,0,0,0-7.523-1.34,20.405,20.405,0,0,0-7.334,1.211,12.272,12.272,0,0,0-5.025,3.383,9.335,9.335,0,0,0-2.218,5.109l-.03.288h8.174l.045-.121a4.144,4.144,0,0,1,2.028-2.293,8.158,8.158,0,0,1,3.89-.81,6.412,6.412,0,0,1,4.155,1.173,4.089,4.089,0,0,1,1.43,3.353v10.626a5.572,5.572,0,0,1-.931,3.156,6.527,6.527,0,0,1-2.543,2.218,7.97,7.97,0,0,1-3.656.817,6.125,6.125,0,0,1-3.761-1.09,3.519,3.519,0,0,1-1.461-2.982v-.061a3.41,3.41,0,0,1,1.4-2.884,7.806,7.806,0,0,1,4.231-1.219l11.08-.711v-5.389l-12.4.742a21.238,21.238,0,0,0-7.039,1.468,9.874,9.874,0,0,0-4.39,3.375,8.771,8.771,0,0,0-1.5,5.146v.061a9.85,9.85,0,0,0,1.393,5.283A9.349,9.349,0,0,0,147.818-.7,12.376,12.376,0,0,0,153.441.53ZM178.522,0h8.84V-19.269a9.054,9.054,0,0,1,.795-3.936,6.061,6.061,0,0,1,2.263-2.588,6.461,6.461,0,0,1,3.512-.923,5.614,5.614,0,0,1,4.617,1.816,8.314,8.314,0,0,1,1.483,5.358V0h8.84V-21.555q0-5.979-2.914-9.233t-8.484-3.254a10.775,10.775,0,0,0-5.994,1.574,9.344,9.344,0,0,0-3.572,4.284h-.545v-5.146h-8.84Zm35.95,0h8.84V-19.269a9.054,9.054,0,0,1,.795-3.936,6.061,6.061,0,0,1,2.263-2.588,6.461,6.461,0,0,1,3.512-.923A5.614,5.614,0,0,1,234.5-24.9a8.314,8.314,0,0,1,1.483,5.358V0h8.84V-21.555q0-5.979-2.914-9.233t-8.484-3.254a10.775,10.775,0,0,0-5.994,1.574,9.344,9.344,0,0,0-3.572,4.284h-.545v-5.146h-8.84Z" transform="translate(-3.36 46.076)" fill="#000"/>
</svg>
