<svg width="171" height="49" viewBox="0 0 171 49" fill="none" xmlns="http://www.w3.org/2000/svg">
<g id="App Store">
<g id="Group">
<path id="Border" d="M164.204 0.981533C167.119 0.981533 169.491 3.28913 169.491 6.125V42.875C169.491 45.7109 167.119 48.0185 164.204 48.0185H6.7963C3.88111 48.0185 1.50898 45.7109 1.50898 42.875V6.125C1.50898 3.28913 3.88111 0.981533 6.7963 0.981533H164.204ZM164.204 3.8147e-06H6.7963C3.33491 3.8147e-06 0.5 2.75779 0.5 6.125V42.875C0.5 46.2422 3.33491 49 6.7963 49H164.204C167.665 49 170.5 46.2422 170.5 42.875V6.125C170.5 2.75779 167.665 3.8147e-06 164.204 3.8147e-06Z" fill="black"/>
<g id="Icon">
<g id="Vector">
<path d="M38.4389 24.2348C38.4024 20.2866 41.7621 18.3658 41.9157 18.2764C40.013 15.5777 37.0638 15.209 36.0274 15.1796C33.5505 14.926 31.1478 16.6214 29.886 16.6214C28.5991 16.6214 26.656 15.2041 24.5619 15.2458C21.8671 15.2862 19.346 16.804 17.9634 19.1609C15.1099 23.9665 17.238 31.0287 19.9719 34.9131C21.3394 36.8156 22.9374 38.9397 25.0291 38.865C27.0754 38.7829 27.8397 37.5959 30.3091 37.5959C32.7559 37.5959 33.4737 38.865 35.6068 38.8172C37.803 38.7829 39.1857 36.9062 40.5054 34.9866C42.0857 32.8061 42.7204 30.6587 42.7456 30.5485C42.694 30.5313 38.4805 28.967 38.4389 24.2348Z" fill="black"/>
<path d="M34.4093 12.6243C35.5099 11.2853 36.2629 9.46376 36.0539 7.61523C34.4609 7.68383 32.4688 8.68711 31.3216 9.99663C30.3066 11.1506 29.4 13.042 29.6342 14.8207C31.4236 14.9505 33.2608 13.9424 34.4093 12.6243Z" fill="black"/>
</g>
</g>
<g id="Download on the">
<path id="D" d="M62.2667 12.2614C62.2667 13.7032 61.8221 14.7886 60.9344 15.5174C60.1121 16.19 58.9435 16.5268 57.4298 16.5268C56.6793 16.5268 56.0371 16.495 55.4994 16.4313V8.55332C56.2008 8.44307 56.9564 8.38672 57.7724 8.38672C59.2142 8.38672 60.3009 8.69174 61.0338 9.30179C61.8549 9.99147 62.2667 10.9776 62.2667 12.2614ZM60.8752 12.2969C60.8752 11.3622 60.6208 10.6456 60.1121 10.1458C59.6033 9.64724 58.8604 9.39734 57.8819 9.39734C57.4664 9.39734 57.1125 9.42429 56.8191 9.48064V15.4697C56.9815 15.4942 57.2787 15.5052 57.7107 15.5052C58.7206 15.5052 59.5001 15.232 60.0491 14.6857C60.5981 14.1393 60.8752 13.3431 60.8752 12.2969Z" fill="black"/>
<path id="o" d="M69.6447 13.5196C69.6447 14.4078 69.384 15.1354 68.8627 15.7063C68.3162 16.293 67.5921 16.5858 66.6879 16.5858C65.8165 16.5858 65.1227 16.3053 64.6051 15.7418C64.0888 15.1795 63.8307 14.4702 63.8307 13.6152C63.8307 12.7209 64.0964 11.9872 64.6303 11.4175C65.1642 10.8479 65.882 10.5625 66.7862 10.5625C67.6576 10.5625 68.3577 10.843 68.8879 11.4053C69.3916 11.9516 69.6447 12.6572 69.6447 13.5196ZM68.2759 13.5613C68.2759 13.0284 68.1575 12.5715 67.922 12.1905C67.645 11.7299 67.2508 11.4996 66.7383 11.4996C66.2082 11.4996 65.8052 11.7299 65.5282 12.1905C65.2914 12.5715 65.1743 13.0358 65.1743 13.5846C65.1743 14.1174 65.2927 14.5744 65.5282 14.9553C65.814 15.4159 66.2119 15.6462 66.7257 15.6462C67.2294 15.6462 67.6248 15.4123 67.9094 14.9431C68.1537 14.5548 68.2759 14.0942 68.2759 13.5613Z" fill="black"/>
<path id="w" d="M79.5374 10.6816L77.68 16.4563H76.4711L75.7017 13.9487C75.5065 13.3227 75.3478 12.7004 75.2244 12.083H75.2005C75.0859 12.7176 74.9272 13.3387 74.7232 13.9487L73.906 16.4563H72.6832L70.9366 10.6816H72.2929L72.964 13.4269C73.1265 14.0761 73.26 14.6947 73.367 15.2803H73.3909C73.4892 14.7976 73.6516 14.1827 73.8808 13.4391L74.7232 10.6829H75.7986L76.6058 13.3803C76.801 14.0381 76.9597 14.6715 77.0818 15.2815H77.1183C77.2078 14.6874 77.3425 14.0541 77.5213 13.3803L78.2416 10.6829H79.5374V10.6816Z" fill="black"/>
<path id="n" d="M86.3789 16.4565H85.0592V13.149C85.0592 12.1298 84.6613 11.6202 83.8629 11.6202C83.4713 11.6202 83.1552 11.7598 82.9097 12.0403C82.6666 12.3209 82.5432 12.6516 82.5432 13.0301V16.4552H81.2235V12.3319C81.2235 11.8247 81.2071 11.2747 81.1757 10.6794H82.3354L82.3971 11.5822H82.4337C82.5873 11.3017 82.8165 11.0701 83.1174 10.8852C83.4751 10.6696 83.8755 10.5605 84.3137 10.5605C84.8678 10.5605 85.3287 10.7345 85.6951 11.0836C86.151 11.5111 86.3789 12.1494 86.3789 12.9971V16.4565Z" fill="black"/>
<path id="l" d="M90.0183 16.4556H88.6998V8.03125H90.0183V16.4556Z" fill="black"/>
<path id="o_2" d="M97.7879 13.5196C97.7879 14.4078 97.5272 15.1354 97.0059 15.7063C96.4594 16.293 95.734 16.5858 94.8311 16.5858C93.9585 16.5858 93.2646 16.3053 92.7483 15.7418C92.232 15.1795 91.9739 14.4702 91.9739 13.6152C91.9739 12.7209 92.2396 11.9872 92.7735 11.4175C93.3074 10.8479 94.0252 10.5625 94.9281 10.5625C95.8008 10.5625 96.4997 10.843 97.0311 11.4053C97.5348 11.9516 97.7879 12.6572 97.7879 13.5196ZM96.4178 13.5613C96.4178 13.0284 96.2994 12.5715 96.064 12.1905C95.7882 11.7299 95.3928 11.4996 94.8815 11.4996C94.3501 11.4996 93.9471 11.7299 93.6714 12.1905C93.4346 12.5715 93.3175 13.0358 93.3175 13.5846C93.3175 14.1174 93.4359 14.5744 93.6714 14.9553C93.9572 15.4159 94.3551 15.6462 94.8689 15.6462C95.3726 15.6462 95.7668 15.4123 96.0514 14.9431C96.2969 14.5548 96.4178 14.0942 96.4178 13.5613Z" fill="black"/>
<path id="a" d="M104.175 16.4547H102.99L102.892 15.7896H102.855C102.45 16.32 101.872 16.5858 101.121 16.5858C100.561 16.5858 100.107 16.4106 99.7662 16.0627C99.4564 15.7467 99.3015 15.3535 99.3015 14.8867C99.3015 14.1811 99.6037 13.6434 100.212 13.271C100.819 12.8986 101.673 12.716 102.772 12.7246V12.6168C102.772 11.8561 102.362 11.4764 101.539 11.4764C100.954 11.4764 100.437 11.6197 99.9916 11.9039L99.7234 11.0611C100.275 10.7291 100.956 10.5625 101.76 10.5625C103.311 10.5625 104.089 11.3587 104.089 12.9512V15.0778C104.089 15.6548 104.118 16.1142 104.175 16.4547ZM102.805 14.4702V13.5797C101.349 13.5552 100.621 13.9435 100.621 14.7434C100.621 15.0448 100.704 15.2702 100.874 15.4208C101.044 15.5715 101.261 15.6462 101.519 15.6462C101.809 15.6462 102.079 15.5568 102.326 15.3792C102.574 15.2003 102.727 14.9737 102.783 14.6956C102.797 14.6332 102.805 14.5572 102.805 14.4702Z" fill="black"/>
<path id="d" d="M111.674 16.4556H110.503L110.441 15.5282H110.404C110.03 16.2338 109.393 16.5866 108.498 16.5866C107.783 16.5866 107.187 16.3135 106.715 15.7671C106.243 15.2208 106.007 14.5115 106.007 13.6405C106.007 12.7059 106.263 11.9488 106.776 11.3706C107.274 10.8316 107.883 10.5621 108.609 10.5621C109.406 10.5621 109.964 10.823 110.281 11.3461H110.306V8.03125H111.627V14.8998C111.627 15.4621 111.642 15.9803 111.674 16.4556ZM110.306 14.0203V13.0574C110.306 12.8908 110.294 12.7561 110.27 12.6532C110.195 12.3445 110.035 12.0848 109.792 11.8753C109.547 11.6658 109.251 11.5605 108.91 11.5605C108.417 11.5605 108.032 11.7503 107.749 12.1313C107.468 12.5123 107.326 12.9986 107.326 13.5927C107.326 14.1636 107.46 14.6266 107.731 14.9831C108.017 15.3629 108.402 15.5528 108.884 15.5528C109.318 15.5528 109.664 15.3947 109.927 15.0774C110.182 14.7847 110.306 14.4319 110.306 14.0203Z" fill="black"/>
<path id="o_3" d="M122.96 13.5196C122.96 14.4078 122.7 15.1354 122.178 15.7063C121.632 16.293 120.909 16.5858 120.004 16.5858C119.134 16.5858 118.44 16.3053 117.921 15.7418C117.405 15.1795 117.146 14.4702 117.146 13.6152C117.146 12.7209 117.412 11.9872 117.946 11.4175C118.48 10.8479 119.198 10.5625 120.103 10.5625C120.973 10.5625 121.675 10.843 122.204 11.4053C122.707 11.9516 122.96 12.6572 122.96 13.5196ZM121.593 13.5613C121.593 13.0284 121.475 12.5715 121.239 12.1905C120.961 11.7299 120.568 11.4996 120.054 11.4996C119.525 11.4996 119.122 11.7299 118.844 12.1905C118.607 12.5715 118.49 13.0358 118.49 13.5846C118.49 14.1174 118.608 14.5744 118.844 14.9553C119.13 15.4159 119.528 15.6462 120.042 15.6462C120.545 15.6462 120.942 15.4123 121.226 14.9431C121.47 14.5548 121.593 14.0942 121.593 13.5613Z" fill="black"/>
<path id="n_2" d="M130.056 16.4565H128.738V13.149C128.738 12.1298 128.34 11.6202 127.54 11.6202C127.149 11.6202 126.833 11.7598 126.588 12.0403C126.344 12.3209 126.222 12.6516 126.222 13.0301V16.4552H124.901V12.3319C124.901 11.8247 124.886 11.2747 124.854 10.6794H126.013L126.075 11.5822H126.111C126.266 11.3017 126.495 11.0701 126.795 10.8852C127.154 10.6696 127.553 10.5605 127.992 10.5605C128.545 10.5605 129.006 10.7345 129.373 11.0836C129.83 11.5111 130.056 12.1494 130.056 12.9971V16.4565Z" fill="black"/>
<path id="t" d="M138.938 11.642H137.485V14.4472C137.485 15.1602 137.743 15.5166 138.254 15.5166C138.491 15.5166 138.687 15.497 138.842 15.4566L138.876 16.4305C138.616 16.526 138.273 16.5738 137.851 16.5738C137.33 16.5738 136.924 16.4195 136.631 16.1108C136.336 15.8021 136.19 15.2827 136.19 14.5538V11.642H135.323V10.6803H136.19V9.62194L137.484 9.24219V10.6791H138.937V11.642H138.938Z" fill="black"/>
<path id="h" d="M145.924 16.4556H144.603V13.1726C144.603 12.1375 144.205 11.6193 143.408 11.6193C142.796 11.6193 142.378 11.9194 142.149 12.5197C142.11 12.6458 142.087 12.8002 142.087 12.9815V16.4544H140.769V8.03125H142.087V11.5115H142.113C142.528 10.8782 143.124 10.5621 143.896 10.5621C144.442 10.5621 144.894 10.736 145.253 11.0852C145.7 11.52 145.924 12.1669 145.924 13.0219V16.4556Z" fill="black"/>
<path id="e" d="M153.131 13.2955C153.131 13.5258 153.113 13.7194 153.082 13.8774H149.124C149.142 14.4482 149.331 14.8831 149.697 15.1845C150.032 15.454 150.464 15.5887 150.993 15.5887C151.578 15.5887 152.112 15.4981 152.593 15.3155L152.8 16.2073C152.237 16.445 151.575 16.5638 150.808 16.5638C149.888 16.5638 149.164 16.3004 148.641 15.7737C148.114 15.2469 147.854 14.5401 147.854 13.6532C147.854 12.7822 148.097 12.057 148.586 11.4788C149.098 10.8614 149.789 10.5527 150.662 10.5527C151.515 10.5527 152.164 10.8614 152.602 11.4788C152.956 11.9688 153.131 12.5752 153.131 13.2955ZM151.872 12.9635C151.882 12.5826 151.795 12.2543 151.616 11.9774C151.387 11.6209 151.038 11.4421 150.566 11.4421C150.135 11.4421 149.784 11.616 149.516 11.9652C149.297 12.2432 149.167 12.5752 149.124 12.9635H151.872Z" fill="black"/>
</g>
<g id="App Store_2">
<path id="A" d="M68.0529 38.5914H65.1931L63.6266 33.8028H58.1816L56.6894 38.5914H53.9052L59.2998 22.2891H62.6318L68.0529 38.5914ZM63.1544 31.7938L61.7377 27.537C61.5879 27.1021 61.3071 26.078 60.8928 24.4659H60.8424C60.6774 25.1592 60.4117 26.1833 60.0466 27.537L58.6551 31.7938H63.1544Z" fill="black"/>
<path id="p" d="M81.9261 32.57C81.9261 34.5692 81.3708 36.1495 80.2601 37.3096C79.2653 38.3422 78.03 38.858 76.5554 38.858C74.9637 38.858 73.8203 38.3018 73.1239 37.1895H73.0735V43.3819H70.3888V30.7068C70.3888 29.45 70.3548 28.16 70.2893 26.837H72.6504L72.8003 28.7003H72.8506C73.746 27.2964 75.1047 26.5957 76.9281 26.5957C78.3536 26.5957 79.5436 27.1433 80.4956 28.2397C81.4501 29.3373 81.9261 30.7803 81.9261 32.57ZM79.191 32.6656C79.191 31.5214 78.9266 30.5782 78.3952 29.8358C77.8146 29.0616 77.0352 28.6745 76.058 28.6745C75.3956 28.6745 74.7937 28.8901 74.256 29.3152C73.717 29.744 73.3644 30.3038 73.1994 30.9971C73.1163 31.3205 73.0748 31.5851 73.0748 31.7934V33.7534C73.0748 34.6084 73.3443 35.33 73.8832 35.9192C74.4222 36.5084 75.1223 36.8024 75.9837 36.8024C76.9949 36.8024 77.7819 36.4227 78.3448 35.6656C78.9089 34.9073 79.191 33.9077 79.191 32.6656Z" fill="black"/>
<path id="p_2" d="M95.8246 32.57C95.8246 34.5692 95.2693 36.1495 94.1574 37.3096C93.1638 38.3422 91.9285 38.858 90.4539 38.858C88.8622 38.858 87.7188 38.3018 87.0237 37.1895H86.9733V43.3819H84.2886V30.7068C84.2886 29.45 84.2546 28.16 84.1891 26.837H86.5502L86.7001 28.7003H86.7504C87.6445 27.2964 89.0032 26.5957 90.8279 26.5957C92.2521 26.5957 93.4421 27.1433 94.3967 28.2397C95.3474 29.3373 95.8246 30.7803 95.8246 32.57ZM93.0895 32.6656C93.0895 31.5214 92.8238 30.5782 92.2924 29.8358C91.7119 29.0616 90.9349 28.6745 89.9565 28.6745C89.2929 28.6745 88.6922 28.8901 88.1532 29.3152C87.6143 29.744 87.2629 30.3038 87.098 30.9971C87.0161 31.3205 86.9733 31.5851 86.9733 31.7934V33.7534C86.9733 34.6084 87.2428 35.33 87.7792 35.9192C88.3182 36.5072 89.0184 36.8024 89.8822 36.8024C90.8934 36.8024 91.6804 36.4227 92.2433 35.6656C92.8075 34.9073 93.0895 33.9077 93.0895 32.6656Z" fill="black"/>
<path id="S" d="M111.364 34.0203C111.364 35.407 110.869 36.5352 109.875 37.4062C108.784 38.358 107.264 38.8333 105.311 38.8333C103.507 38.8333 102.062 38.4952 100.967 37.8178L101.589 35.6409C102.768 36.3343 104.061 36.6822 105.471 36.6822C106.482 36.6822 107.269 36.4592 107.834 36.0158C108.397 35.5723 108.678 34.977 108.678 34.2346C108.678 33.5731 108.446 33.0158 107.981 32.5637C107.519 32.1117 106.747 31.6915 105.669 31.3032C102.735 30.2387 101.27 28.6793 101.27 26.6286C101.27 25.2885 101.783 24.1896 102.812 23.3346C103.837 22.4783 105.205 22.0508 106.915 22.0508C108.44 22.0508 109.707 22.3093 110.718 22.825L110.047 24.954C109.102 24.4542 108.034 24.2043 106.839 24.2043C105.895 24.2043 105.157 24.431 104.628 24.8818C104.181 25.2848 103.957 25.776 103.957 26.3579C103.957 27.0022 104.213 27.5351 104.726 27.9541C105.173 28.3412 105.986 28.7601 107.164 29.2121C108.606 29.7769 109.665 30.4371 110.346 31.1942C111.025 31.9488 111.364 32.8933 111.364 34.0203Z" fill="black"/>
<path id="t_2" d="M120.24 28.7972H117.281V34.5045C117.281 35.9561 117.803 36.6813 118.848 36.6813C119.327 36.6813 119.725 36.6409 120.04 36.56L120.115 38.5433C119.586 38.7356 118.889 38.8324 118.027 38.8324C116.966 38.8324 116.138 38.5176 115.54 37.8891C114.944 37.2595 114.644 36.2035 114.644 34.7201V28.7947H112.881V26.8347H114.644V24.6824L117.281 23.9082V26.8347H120.24V28.7972Z" fill="black"/>
<path id="o_4" d="M133.592 32.6185C133.592 34.4254 133.061 35.9089 132.001 37.069C130.889 38.2633 129.413 38.8587 127.573 38.8587C125.8 38.8587 124.388 38.2866 123.336 37.1425C122.283 35.9983 121.757 34.554 121.757 32.8133C121.757 30.9917 122.298 29.4997 123.385 28.3396C124.469 27.1783 125.932 26.5977 127.772 26.5977C129.545 26.5977 130.972 27.1697 132.049 28.3151C133.079 29.4262 133.592 30.8607 133.592 32.6185ZM130.807 32.7031C130.807 31.6189 130.569 30.6892 130.087 29.9137C129.524 28.9754 128.719 28.5074 127.676 28.5074C126.597 28.5074 125.777 28.9766 125.215 29.9137C124.732 30.6904 124.494 31.6349 124.494 32.7521C124.494 33.8362 124.732 34.766 125.215 35.5402C125.795 36.4785 126.606 36.9465 127.652 36.9465C128.677 36.9465 129.482 36.4687 130.063 35.5157C130.558 34.7255 130.807 33.786 130.807 32.7031Z" fill="black"/>
<path id="r" d="M142.319 29.1339C142.053 29.0861 141.77 29.0616 141.473 29.0616C140.528 29.0616 139.798 29.4083 139.284 30.1029C138.837 30.7154 138.613 31.4896 138.613 32.4243V38.5921H135.93L135.955 30.539C135.955 29.1841 135.921 27.9506 135.854 26.8383H138.192L138.291 29.0874H138.365C138.648 28.3144 139.095 27.6921 139.707 27.2254C140.306 26.8052 140.952 26.5957 141.648 26.5957C141.896 26.5957 142.12 26.6129 142.319 26.6435V29.1339Z" fill="black"/>
<path id="e_2" d="M154.326 32.159C154.326 32.6269 154.294 33.0214 154.228 33.3436H146.174C146.205 34.5049 146.594 35.393 147.342 36.0055C148.021 36.5531 148.899 36.8275 149.977 36.8275C151.169 36.8275 152.257 36.6425 153.235 36.2713L153.656 38.0843C152.513 38.5694 151.163 38.8107 149.605 38.8107C147.731 38.8107 146.26 38.2742 145.19 37.2023C144.122 36.1304 143.587 34.6911 143.587 32.8854C143.587 31.1128 144.084 29.6367 145.081 28.4595C146.123 27.2026 147.532 26.5742 149.305 26.5742C151.047 26.5742 152.365 27.2026 153.261 28.4595C153.97 29.4579 154.326 30.6927 154.326 32.159ZM151.766 31.4816C151.784 30.7074 151.609 30.0385 151.245 29.4738C150.78 28.7474 150.066 28.3848 149.105 28.3848C148.227 28.3848 147.513 28.7388 146.968 29.4493C146.521 30.014 146.255 30.6914 146.174 31.4803H151.766V31.4816Z" fill="black"/>
</g>
</g>
</g>
</svg>
