<svg width="171" height="49" viewBox="0 0 171 49" fill="none" xmlns="http://www.w3.org/2000/svg">
<g id="Google Play">
<g id="Group">
<path id="Border" d="M164.204 0.98153C167.119 0.98153 169.491 3.28913 169.491 6.125V42.875C169.491 45.7109 167.119 48.0185 164.204 48.0185H6.7963C3.88111 48.0185 1.50898 45.7109 1.50898 42.875V6.125C1.50898 3.28913 3.88111 0.98153 6.7963 0.98153H164.204ZM164.204 -9.53674e-07H6.7963C3.33491 -9.53674e-07 0.5 2.75778 0.5 6.125V42.875C0.5 46.2422 3.33491 49 6.7963 49H164.204C167.665 49 170.5 46.2422 170.5 42.875V6.125C170.5 2.75778 167.665 -9.53674e-07 164.204 -9.53674e-07Z" fill="black"/>
<g id="Icon">
<path id="Vector" d="M12.6959 9.23464C12.326 9.61133 12.1119 10.1978 12.1119 10.9573V38.0482C12.1119 38.8077 12.326 39.3941 12.6959 39.7708L12.7872 39.8535L28.3926 24.6788V24.3205L12.7872 9.14583L12.6959 9.23464Z" fill="black"/>
<path id="Vector_2" d="M35.4774 29.7402L30.2814 24.6795V24.3211L35.4837 19.2604L35.6002 19.3262L41.7611 22.7363C43.5193 23.704 43.5193 25.2965 41.7611 26.2704L35.6002 29.6744L35.4774 29.7402Z" fill="black"/>
<path id="Vector_3" d="M34.6558 30.6167L29.337 25.4426L13.6404 40.7137C14.2244 41.3109 15.1767 41.3829 16.2596 40.7857L34.6558 30.6167Z" fill="black"/>
<path id="Vector_4" d="M34.6558 18.3845L16.2596 8.21547C15.1767 7.62441 14.2244 7.69638 13.6404 8.29356L29.337 23.5586L34.6558 18.3845Z" fill="black"/>
</g>
<g id="GET IT ON">
<path id="G" d="M60.2109 12.5472C60.2109 13.57 59.8961 14.3893 59.2759 15.0002C58.5628 15.7245 57.6341 16.089 56.4961 16.089C55.4084 16.089 54.4797 15.7184 53.7178 14.988C52.9544 14.2469 52.5735 13.3373 52.5735 12.2486C52.5735 11.1599 52.9544 10.2503 53.7178 9.5153C54.4797 8.77877 55.4084 8.4082 56.4961 8.4082C57.0376 8.4082 57.5539 8.51692 58.0465 8.71905C58.5377 8.9227 58.9375 9.19833 59.2271 9.53827L58.5691 10.1845C58.0639 9.60411 57.376 9.31777 56.4961 9.31777C55.7027 9.31777 55.0149 9.58727 54.4309 10.1309C53.8532 10.676 53.5636 11.3819 53.5636 12.2486C53.5636 13.1153 53.8532 13.8273 54.4309 14.3724C55.0149 14.9099 55.7027 15.1855 56.4961 15.1855C57.3382 15.1855 58.0465 14.9099 58.6053 14.3663C58.9737 14.0065 59.183 13.5103 59.2381 12.8764H56.4961V11.9913H60.1542C60.1983 12.1827 60.2109 12.368 60.2109 12.5472Z" fill="black" stroke="#595959" stroke-width="0.16" stroke-miterlimit="10"/>
<path id="E" d="M66.0144 9.48003H62.5782V11.8075H65.676V12.6926H62.5782V15.0201H66.0144V15.922H61.6055V8.57812H66.0144V9.48003Z" fill="black" stroke="#595959" stroke-width="0.16" stroke-miterlimit="10"/>
<path id="T" d="M70.1102 15.922H69.1375V9.48003H67.0298V8.57812H72.2195V9.48003H70.1102V15.922Z" fill="black" stroke="#595959" stroke-width="0.16" stroke-miterlimit="10"/>
<path id="I" d="M75.9752 15.922V8.57812H76.9464V15.922H75.9752Z" fill="black" stroke="#595959" stroke-width="0.16" stroke-miterlimit="10"/>
<path id="T_2" d="M81.2515 15.922H80.2866V9.48003H78.171V8.57812H83.367V9.48003H81.2515V15.922Z" fill="black" stroke="#595959" stroke-width="0.16" stroke-miterlimit="10"/>
<path id="O" d="M93.1924 14.9757C92.4479 15.7184 91.5255 16.089 90.4252 16.089C89.3186 16.089 88.3962 15.7184 87.6517 14.9757C86.9087 14.2346 86.5388 13.325 86.5388 12.2486C86.5388 11.1721 86.9087 10.2625 87.6517 9.52142C88.3962 8.77877 89.3186 8.4082 90.4252 8.4082C91.5192 8.4082 92.4416 8.77877 93.1861 9.52755C93.9354 10.2748 94.3053 11.1782 94.3053 12.2486C94.3053 13.325 93.9354 14.2346 93.1924 14.9757ZM88.371 14.3602C88.9314 14.9099 89.613 15.1855 90.4252 15.1855C91.2311 15.1855 91.919 14.9099 92.4731 14.3602C93.0319 13.8105 93.3152 13.1045 93.3152 12.2486C93.3152 11.3926 93.0319 10.6867 92.4731 10.137C91.919 9.58727 91.2311 9.31164 90.4252 9.31164C89.613 9.31164 88.9314 9.58727 88.371 10.137C87.8122 10.6867 87.5289 11.3926 87.5289 12.2486C87.5289 13.1045 87.8122 13.8105 88.371 14.3602Z" fill="black" stroke="#595959" stroke-width="0.16" stroke-miterlimit="10"/>
<path id="N" d="M95.67 15.922V8.57812H96.8506L100.521 14.2897H100.564L100.521 12.8779V8.57812H101.493V15.922H100.479L96.6349 9.92869H96.5924L96.6349 11.3466V15.922H95.67Z" fill="black" stroke="#595959" stroke-width="0.16" stroke-miterlimit="10"/>
</g>
<g id="Google Play_2">
<path id="Google Play_3" d="M86.2997 26.646C83.342 26.646 80.9258 28.8357 80.9258 31.8569C80.9258 34.8535 83.342 37.0662 86.2997 37.0662C89.2637 37.0662 91.6799 34.8535 91.6799 31.8569C91.6799 28.8357 89.2637 26.646 86.2997 26.646ZM86.2997 35.0143C84.6768 35.0143 83.2806 33.7112 83.2806 31.8569C83.2806 29.978 84.6768 28.6979 86.2997 28.6979C87.9225 28.6979 89.325 29.978 89.325 31.8569C89.325 33.7112 87.9225 35.0143 86.2997 35.0143ZM74.5744 26.646C71.6104 26.646 69.2005 28.8357 69.2005 31.8569C69.2005 34.8535 71.6104 37.0662 74.5744 37.0662C77.5368 37.0662 79.9483 34.8535 79.9483 31.8569C79.9483 28.8357 77.5368 26.646 74.5744 26.646ZM74.5744 35.0143C72.95 35.0143 71.549 33.7112 71.549 31.8569C71.549 29.978 72.95 28.6979 74.5744 28.6979C76.1973 28.6979 77.5935 29.978 77.5935 31.8569C77.5935 33.7112 76.1973 35.0143 74.5744 35.0143ZM60.6218 28.2431V30.4573H66.0571C65.8981 31.6945 65.4731 32.6041 64.8214 33.238C64.0281 34.0037 62.7925 34.8535 60.6218 34.8535C57.2769 34.8535 54.6576 32.2274 54.6576 28.9735C54.6576 25.7196 57.2769 23.0935 60.6218 23.0935C62.4304 23.0935 63.7463 23.781 64.7175 24.6722L66.3215 23.1119C64.9631 21.8501 63.1561 20.8809 60.6218 20.8809C56.035 20.8809 52.1801 24.5115 52.1801 28.9735C52.1801 33.4356 56.035 37.0662 60.6218 37.0662C63.101 37.0662 64.9631 36.276 66.427 34.7938C67.9271 33.3345 68.3946 31.2826 68.3946 29.6258C68.3946 29.1113 68.3505 28.6382 68.2718 28.2431H60.6218ZM117.676 29.9596C117.233 28.7944 115.869 26.646 113.089 26.646C110.334 26.646 108.041 28.7576 108.041 31.8569C108.041 34.7754 110.311 37.0662 113.353 37.0662C115.814 37.0662 117.233 35.6069 117.817 34.757L115.991 33.5734C115.382 34.4401 114.553 35.0143 113.353 35.0143C112.162 35.0143 111.307 34.483 110.759 33.4356L117.923 30.5522L117.676 29.9596ZM110.372 31.6945C110.311 29.6855 111.976 28.6565 113.169 28.6565C114.104 28.6565 114.897 29.1113 115.162 29.7621L110.372 31.6945ZM104.549 36.7492H106.904V21.4367H104.549V36.7492ZM100.693 27.8067H100.614C100.085 27.1973 99.0764 26.646 97.7983 26.646C95.1161 26.646 92.6637 28.9368 92.6637 31.8737C92.6637 34.7938 95.1161 37.0662 97.7983 37.0662C99.0764 37.0662 100.085 36.5103 100.614 35.8825H100.693V36.6298C100.693 38.6219 99.599 39.6923 97.8345 39.6923C96.3958 39.6923 95.5033 38.6816 95.135 37.8318L93.0871 38.6633C93.6774 40.0445 95.2404 41.7441 97.8345 41.7441C100.595 41.7441 102.925 40.1639 102.925 36.3189V26.963H100.693V27.8067ZM97.9998 35.0143C96.3769 35.0143 95.0185 33.6928 95.0185 31.8737C95.0185 30.0377 96.3769 28.6979 97.9998 28.6979C99.599 28.6979 100.86 30.0377 100.86 31.8737C100.86 33.6928 99.599 35.0143 97.9998 35.0143ZM128.7 21.4367H123.068V36.7492H125.417V30.9473H128.7C131.309 30.9473 133.867 29.1113 133.867 26.1912C133.867 23.2727 131.302 21.4367 128.7 21.4367ZM128.762 28.8173H125.417V23.5667H128.762C130.515 23.5667 131.517 24.9831 131.517 26.1912C131.517 27.3764 130.515 28.8173 128.762 28.8173ZM143.28 26.6169C141.583 26.6169 139.818 27.3458 139.093 28.9613L141.177 29.8111C141.625 28.9613 142.45 28.6856 143.322 28.6856C144.54 28.6856 145.776 29.3977 145.795 30.6548V30.8156C145.37 30.5767 144.46 30.223 143.341 30.223C141.096 30.223 138.809 31.425 138.809 33.6683C138.809 35.7202 140.648 37.0417 142.714 37.0417C144.295 37.0417 145.167 36.348 145.715 35.541H145.795V36.7247H148.063V30.8508C148.063 28.1359 145.979 26.6169 143.28 26.6169ZM142.996 35.0082C142.228 35.0082 141.158 34.6376 141.158 33.7112C141.158 32.526 142.493 32.0712 143.648 32.0712C144.682 32.0712 145.167 32.2933 145.795 32.5857C145.611 34.0037 144.356 35.0082 142.996 35.0082ZM156.327 26.9523L153.628 33.5902H153.547L150.756 26.9523H148.224L152.417 36.2286L150.024 41.3904H152.478L158.94 26.9523H156.327ZM135.157 36.7492H137.512V21.4367H135.157V36.7492Z" fill="black"/>
</g>
</g>
</g>
</svg>
