<svg width="20" height="26" viewBox="0 0 20 26" fill="none" xmlns="http://www.w3.org/2000/svg">
<path id="Vector" d="M7.31058 17.6148C9.11017 17.4639 10.918 17.4639 12.7176 17.6148C13.6976 17.6742 14.6729 17.8017 15.6374 17.9964C17.7245 18.4359 19.0871 19.153 19.6711 20.3096C20.1096 21.2123 20.1096 22.2868 19.6711 23.1895C19.0871 24.3461 17.7786 25.1094 15.6158 25.5027C14.652 25.7048 13.6765 25.8362 12.696 25.8959C11.7876 26 10.8792 26 9.96003 26H8.30547C7.95942 25.9537 7.62419 25.9306 7.29977 25.9306C6.31922 25.8781 5.34346 25.7506 4.37997 25.5489C2.29285 25.1326 0.930278 24.3923 0.346319 23.2358C0.120889 22.7877 0.0020426 22.2872 0.000130272 21.7785C-0.00443039 21.2666 0.110822 20.7616 0.335505 20.3096C0.90865 19.153 2.27122 18.4012 4.37997 17.9964C5.3477 17.7989 6.3268 17.6714 7.31058 17.6148ZM10.0033 0C13.6286 0 16.5674 3.14317 16.5674 7.02046C16.5674 10.8978 13.6286 14.0409 10.0033 14.0409C6.37801 14.0409 3.43914 10.8978 3.43914 7.02046C3.43914 3.14317 6.37801 0 10.0033 0Z" fill="black"/>
</svg>
